<svg width="155" height="43" viewBox="0 0 155 43" fill="none" xmlns="http://www.w3.org/2000/svg">
<path d="M0.57 23.23C0.57 22.17 0.86 21.24 1.44 20.44C2.02 19.62 2.82 18.98 3.84 18.52C4.88 18.06 6.06 17.83 7.38 17.83C8 17.83 8.58 17.88 9.12 17.98C9.68 18.08 10.16 18.23 10.56 18.43V17.95C10.56 17.21 10.34 16.66 9.9 16.3C9.48 15.94 8.79 15.76 7.83 15.76C6.95 15.76 6.12 15.91 5.34 16.21C4.58 16.49 3.78 16.91 2.94 17.47L1.29 13.93C2.35 13.25 3.46 12.75 4.62 12.43C5.8 12.09 7.06 11.92 8.4 11.92C10.9 11.92 12.83 12.49 14.19 13.63C15.57 14.75 16.26 16.42 16.26 18.64V21.7C16.26 22.24 16.34 22.62 16.5 22.84C16.66 23.04 16.94 23.16 17.34 23.2V28C16.88 28.1 16.44 28.17 16.02 28.21C15.62 28.27 15.26 28.3 14.94 28.3C13.92 28.3 13.14 28.12 12.6 27.76C12.08 27.38 11.74 26.83 11.58 26.11L11.46 25.54C10.76 26.44 9.95 27.13 9.03 27.61C8.11 28.07 7.13 28.3 6.09 28.3C5.05 28.3 4.11 28.08 3.27 27.64C2.43 27.2 1.77 26.6 1.29 25.84C0.81 25.06 0.57 24.19 0.57 23.23ZM9.81 23.62C10.03 23.46 10.21 23.29 10.35 23.11C10.49 22.91 10.56 22.71 10.56 22.51V21.34C10.24 21.22 9.87 21.12 9.45 21.04C9.05 20.96 8.69 20.92 8.37 20.92C7.69 20.92 7.11 21.09 6.63 21.43C6.17 21.77 5.94 22.2 5.94 22.72C5.94 23 6.02 23.26 6.18 23.5C6.34 23.72 6.56 23.9 6.84 24.04C7.12 24.16 7.44 24.22 7.8 24.22C8.14 24.22 8.49 24.17 8.85 24.07C9.23 23.95 9.55 23.8 9.81 23.62ZM27.169 28.3C25.789 28.3 24.559 28.09 23.479 27.67C22.399 27.23 21.489 26.64 20.749 25.9C20.029 25.16 19.479 24.31 19.099 23.35C18.719 22.39 18.529 21.38 18.529 20.32C18.529 18.8 18.859 17.41 19.519 16.15C20.179 14.87 21.149 13.85 22.429 13.09C23.709 12.31 25.289 11.92 27.169 11.92C29.049 11.92 30.629 12.3 31.909 13.06C33.189 13.82 34.159 14.82 34.819 16.06C35.479 17.3 35.809 18.65 35.809 20.11C35.809 20.41 35.789 20.72 35.749 21.04C35.729 21.34 35.699 21.61 35.659 21.85H24.589C24.629 22.41 24.779 22.87 25.039 23.23C25.319 23.57 25.659 23.82 26.059 23.98C26.479 24.14 26.909 24.22 27.349 24.22C27.969 24.22 28.549 24.08 29.089 23.8C29.649 23.52 30.019 23.13 30.199 22.63L35.029 24.01C34.609 24.85 34.019 25.59 33.259 26.23C32.519 26.87 31.639 27.38 30.619 27.76C29.599 28.12 28.449 28.3 27.169 28.3ZM24.469 18.43H29.689C29.629 17.91 29.479 17.47 29.239 17.11C29.019 16.75 28.719 16.47 28.339 16.27C27.979 16.07 27.559 15.97 27.079 15.97C26.599 15.97 26.169 16.07 25.789 16.27C25.429 16.47 25.129 16.75 24.889 17.11C24.669 17.47 24.529 17.91 24.469 18.43ZM44.0102 28.3C42.6302 28.3 41.2702 28.08 39.9302 27.64C38.6102 27.18 37.4902 26.52 36.5702 25.66L38.5202 22.15C39.5002 22.79 40.4402 23.29 41.3402 23.65C42.2602 24.01 43.0902 24.19 43.8302 24.19C44.2502 24.19 44.5602 24.14 44.7602 24.04C44.9602 23.92 45.0602 23.73 45.0602 23.47C45.0602 23.29 44.9902 23.14 44.8502 23.02C44.7102 22.9 44.4802 22.78 44.1602 22.66C43.8602 22.54 43.4702 22.41 42.9902 22.27C41.7502 21.83 40.7102 21.42 39.8702 21.04C39.0502 20.66 38.4302 20.2 38.0102 19.66C37.6102 19.1 37.4102 18.36 37.4102 17.44C37.4102 16.36 37.6802 15.41 38.2202 14.59C38.7602 13.75 39.5302 13.09 40.5302 12.61C41.5502 12.13 42.7702 11.89 44.1902 11.89C45.2502 11.89 46.3102 12.06 47.3702 12.4C48.4502 12.72 49.4902 13.31 50.4902 14.17L48.3302 17.65C47.3302 17.03 46.4802 16.59 45.7802 16.33C45.1002 16.07 44.4902 15.94 43.9502 15.94C43.6902 15.94 43.4602 15.97 43.2602 16.03C43.0802 16.09 42.9402 16.18 42.8402 16.3C42.7402 16.42 42.6902 16.58 42.6902 16.78C42.6902 16.98 42.7602 17.15 42.9002 17.29C43.0402 17.41 43.2602 17.53 43.5602 17.65C43.8602 17.75 44.2402 17.87 44.7002 18.01C46.0602 18.41 47.1702 18.82 48.0302 19.24C48.8902 19.64 49.5202 20.13 49.9202 20.71C50.3402 21.29 50.5502 22.05 50.5502 22.99C50.5502 24.65 49.9602 25.95 48.7802 26.89C47.6202 27.83 46.0302 28.3 44.0102 28.3ZM63.6038 27.13C63.0838 27.35 62.5238 27.56 61.9238 27.76C61.3438 27.94 60.7438 28.08 60.1238 28.18C59.5238 28.28 58.9338 28.33 58.3538 28.33C57.4938 28.33 56.7038 28.19 55.9838 27.91C55.2638 27.61 54.6838 27.13 54.2438 26.47C53.8238 25.79 53.6138 24.88 53.6138 23.74V16.51H51.6638V12.22H53.6138V7.27H59.3138V12.22H62.4038V16.51H59.3138V21.73C59.3138 22.25 59.4238 22.62 59.6438 22.84C59.8638 23.04 60.1638 23.14 60.5438 23.14C60.8238 23.14 61.1438 23.09 61.5038 22.99C61.8638 22.89 62.2238 22.77 62.5838 22.63L63.6038 27.13ZM81.0893 28H75.3893V19.12C75.3893 18.34 75.2093 17.78 74.8493 17.44C74.5093 17.08 74.0793 16.9 73.5593 16.9C73.3193 16.9 73.0193 16.99 72.6593 17.17C72.3193 17.35 71.9893 17.61 71.6693 17.95C71.3493 18.29 71.0993 18.69 70.9193 19.15V28H65.2193V6.1H70.9193V14.56C71.4793 13.7 72.2093 13.05 73.1093 12.61C74.0293 12.15 75.0393 11.92 76.1393 11.92C77.2593 11.92 78.1493 12.11 78.8093 12.49C79.4693 12.85 79.9593 13.32 80.2793 13.9C80.5993 14.48 80.8093 15.1 80.9093 15.76C81.0293 16.42 81.0893 17.04 81.0893 17.62V28ZM91.6221 28.3C90.2421 28.3 89.0121 28.09 87.9321 27.67C86.8521 27.23 85.9421 26.64 85.2021 25.9C84.4821 25.16 83.9321 24.31 83.5521 23.35C83.1721 22.39 82.9821 21.38 82.9821 20.32C82.9821 18.8 83.3121 17.41 83.9721 16.15C84.6321 14.87 85.6021 13.85 86.8821 13.09C88.1621 12.31 89.7421 11.92 91.6221 11.92C93.5021 11.92 95.0821 12.3 96.3621 13.06C97.6421 13.82 98.6121 14.82 99.2721 16.06C99.9321 17.3 100.262 18.65 100.262 20.11C100.262 20.41 100.242 20.72 100.202 21.04C100.182 21.34 100.152 21.61 100.112 21.85H89.0421C89.0821 22.41 89.2321 22.87 89.4921 23.23C89.7721 23.57 90.1121 23.82 90.5121 23.98C90.9321 24.14 91.3621 24.22 91.8021 24.22C92.4221 24.22 93.0021 24.08 93.5421 23.8C94.1021 23.52 94.4721 23.13 94.6521 22.63L99.4821 24.01C99.0621 24.85 98.4721 25.59 97.7121 26.23C96.9721 26.87 96.0921 27.38 95.0721 27.76C94.0521 28.12 92.9021 28.3 91.6221 28.3ZM88.9221 18.43H94.1421C94.0821 17.91 93.9321 17.47 93.6921 17.11C93.4721 16.75 93.1721 16.47 92.7921 16.27C92.4321 16.07 92.0121 15.97 91.5321 15.97C91.0521 15.97 90.6221 16.07 90.2421 16.27C89.8821 16.47 89.5821 16.75 89.3421 17.11C89.1221 17.47 88.9821 17.91 88.9221 18.43ZM113.028 27.13C112.508 27.35 111.948 27.56 111.348 27.76C110.768 27.94 110.168 28.08 109.548 28.18C108.948 28.28 108.358 28.33 107.778 28.33C106.918 28.33 106.128 28.19 105.408 27.91C104.688 27.61 104.108 27.13 103.668 26.47C103.248 25.79 103.038 24.88 103.038 23.74V16.51H101.088V12.22H103.038V7.27H108.738V12.22H111.828V16.51H108.738V21.73C108.738 22.25 108.848 22.62 109.068 22.84C109.288 23.04 109.588 23.14 109.968 23.14C110.248 23.14 110.568 23.09 110.928 22.99C111.288 22.89 111.648 22.77 112.008 22.63L113.028 27.13ZM114.643 28V12.22H120.343V28H114.643ZM114.643 10.9V6.1H120.343V10.9H114.643ZM131.027 28.3C129.627 28.3 128.387 28.08 127.307 27.64C126.247 27.2 125.347 26.6 124.607 25.84C123.867 25.06 123.307 24.18 122.927 23.2C122.547 22.22 122.357 21.19 122.357 20.11C122.357 18.67 122.687 17.33 123.347 16.09C124.027 14.83 125.007 13.82 126.287 13.06C127.587 12.3 129.167 11.92 131.027 11.92C132.927 11.92 134.527 12.32 135.827 13.12C137.127 13.92 138.097 14.95 138.737 16.21L133.187 17.89C132.927 17.51 132.607 17.22 132.227 17.02C131.867 16.82 131.457 16.72 130.997 16.72C130.477 16.72 130.007 16.86 129.587 17.14C129.167 17.4 128.827 17.78 128.567 18.28C128.327 18.78 128.207 19.39 128.207 20.11C128.207 20.81 128.327 21.42 128.567 21.94C128.827 22.44 129.167 22.83 129.587 23.11C130.007 23.37 130.477 23.5 130.997 23.5C131.317 23.5 131.607 23.46 131.867 23.38C132.127 23.28 132.367 23.14 132.587 22.96C132.827 22.78 133.027 22.57 133.187 22.33L138.737 24.01C138.317 24.85 137.737 25.59 136.997 26.23C136.277 26.87 135.417 27.38 134.417 27.76C133.437 28.12 132.307 28.3 131.027 28.3ZM146.872 28.3C145.492 28.3 144.132 28.08 142.792 27.64C141.472 27.18 140.352 26.52 139.432 25.66L141.382 22.15C142.362 22.79 143.302 23.29 144.202 23.65C145.122 24.01 145.952 24.19 146.692 24.19C147.112 24.19 147.422 24.14 147.622 24.04C147.822 23.92 147.922 23.73 147.922 23.47C147.922 23.29 147.852 23.14 147.712 23.02C147.572 22.9 147.342 22.78 147.022 22.66C146.722 22.54 146.332 22.41 145.852 22.27C144.612 21.83 143.572 21.42 142.732 21.04C141.912 20.66 141.292 20.2 140.872 19.66C140.472 19.1 140.272 18.36 140.272 17.44C140.272 16.36 140.542 15.41 141.082 14.59C141.622 13.75 142.392 13.09 143.392 12.61C144.412 12.13 145.632 11.89 147.052 11.89C148.112 11.89 149.172 12.06 150.232 12.4C151.312 12.72 152.352 13.31 153.352 14.17L151.192 17.65C150.192 17.03 149.342 16.59 148.642 16.33C147.962 16.07 147.352 15.94 146.812 15.94C146.552 15.94 146.322 15.97 146.122 16.03C145.942 16.09 145.802 16.18 145.702 16.3C145.602 16.42 145.552 16.58 145.552 16.78C145.552 16.98 145.622 17.15 145.762 17.29C145.902 17.41 146.122 17.53 146.422 17.65C146.722 17.75 147.102 17.87 147.562 18.01C148.922 18.41 150.032 18.82 150.892 19.24C151.752 19.64 152.382 20.13 152.782 20.71C153.202 21.29 153.412 22.05 153.412 22.99C153.412 24.65 152.822 25.95 151.642 26.89C150.482 27.83 148.892 28.3 146.872 28.3Z" fill="#253543"/>
<path d="M6.8 41H6.256V38.672C6.256 38.1867 6.17867 37.8293 6.024 37.6C5.86933 37.3707 5.64 37.256 5.336 37.256C5.02133 37.256 4.73867 37.368 4.488 37.592C4.24267 37.816 4.06933 38.104 3.968 38.456V41H3.424V38.672C3.424 38.1813 3.34933 37.824 3.2 37.6C3.05067 37.3707 2.82133 37.256 2.512 37.256C2.20267 37.256 1.92267 37.3653 1.672 37.584C1.42133 37.8027 1.24533 38.0907 1.144 38.448V41H0.6V36.832H1.096V37.776C1.272 37.4507 1.496 37.2 1.768 37.024C2.04533 36.848 2.352 36.76 2.688 36.76C3.03467 36.76 3.31467 36.8587 3.528 37.056C3.74133 37.2533 3.872 37.512 3.92 37.832C4.112 37.48 4.34133 37.2133 4.608 37.032C4.88 36.8507 5.18667 36.76 5.528 36.76C5.76267 36.76 5.96 36.8027 6.12 36.888C6.28533 36.9733 6.416 37.096 6.512 37.256C6.61333 37.4107 6.68533 37.6 6.728 37.824C6.776 38.0427 6.8 38.288 6.8 38.56V41ZM11.6476 41.08C11.3489 41.08 11.0716 41.024 10.8156 40.912C10.5649 40.7947 10.3462 40.6373 10.1596 40.44C9.97823 40.2373 9.8369 40.008 9.73556 39.752C9.63423 39.4907 9.58356 39.216 9.58356 38.928C9.58356 38.6293 9.63423 38.352 9.73556 38.096C9.8369 37.8347 9.9809 37.6053 10.1676 37.408C10.3542 37.2053 10.5729 37.048 10.8236 36.936C11.0796 36.8187 11.3569 36.76 11.6556 36.76C11.9542 36.76 12.2289 36.8187 12.4796 36.936C12.7302 37.048 12.9489 37.2053 13.1356 37.408C13.3222 37.6053 13.4662 37.8347 13.5676 38.096C13.6689 38.352 13.7196 38.6293 13.7196 38.928C13.7196 39.216 13.6689 39.4907 13.5676 39.752C13.4662 40.008 13.3222 40.2373 13.1356 40.44C12.9542 40.6373 12.7356 40.7947 12.4796 40.912C12.2289 41.024 11.9516 41.08 11.6476 41.08ZM10.1356 38.936C10.1356 39.2453 10.2022 39.528 10.3356 39.784C10.4742 40.0347 10.6582 40.2347 10.8876 40.384C11.1169 40.528 11.3702 40.6 11.6476 40.6C11.9249 40.6 12.1782 40.5253 12.4076 40.376C12.6369 40.2267 12.8209 40.024 12.9596 39.768C13.0982 39.5067 13.1676 39.224 13.1676 38.92C13.1676 38.6107 13.0982 38.328 12.9596 38.072C12.8209 37.816 12.6369 37.6133 12.4076 37.464C12.1782 37.3147 11.9249 37.24 11.6476 37.24C11.3702 37.24 11.1169 37.3173 10.8876 37.472C10.6636 37.6267 10.4822 37.832 10.3436 38.088C10.2049 38.3387 10.1356 38.6213 10.1356 38.936ZM16.2694 38.928C16.2694 38.5333 16.3494 38.1733 16.5094 37.848C16.6747 37.5173 16.9014 37.2533 17.1894 37.056C17.4774 36.8587 17.8054 36.76 18.1734 36.76C18.52 36.76 18.8294 36.8533 19.1014 37.04C19.3787 37.2213 19.5947 37.4427 19.7494 37.704V35.16H20.2934V40.344C20.2934 40.4187 20.3094 40.4747 20.3414 40.512C20.3734 40.544 20.4214 40.5627 20.4854 40.568V41C20.3787 41.016 20.296 41.0213 20.2374 41.016C20.1254 41.0107 20.0267 40.9653 19.9414 40.88C19.856 40.7947 19.8134 40.7013 19.8134 40.6V40.192C19.648 40.464 19.424 40.68 19.1414 40.84C18.8587 41 18.5654 41.08 18.2614 41.08C17.9734 41.08 17.7067 41.0213 17.4614 40.904C17.2214 40.7867 17.0107 40.6267 16.8294 40.424C16.6534 40.2213 16.5147 39.992 16.4134 39.736C16.3174 39.4747 16.2694 39.2053 16.2694 38.928ZM19.7494 39.568V38.28C19.68 38.088 19.568 37.9147 19.4134 37.76C19.2587 37.6 19.0827 37.4747 18.8854 37.384C18.6934 37.288 18.5014 37.24 18.3094 37.24C18.0854 37.24 17.8827 37.288 17.7014 37.384C17.52 37.4747 17.3627 37.6 17.2294 37.76C17.1014 37.92 17.0027 38.1013 16.9334 38.304C16.864 38.5067 16.8294 38.7147 16.8294 38.928C16.8294 39.152 16.8667 39.3653 16.9414 39.568C17.0214 39.7707 17.1334 39.952 17.2774 40.112C17.4214 40.2667 17.5867 40.3867 17.7734 40.472C17.96 40.5573 18.1627 40.6 18.3814 40.6C18.52 40.6 18.664 40.5733 18.8134 40.52C18.9627 40.4667 19.104 40.3947 19.2374 40.304C19.376 40.208 19.4907 40.096 19.5814 39.968C19.672 39.84 19.728 39.7067 19.7494 39.568ZM25.2459 41.08C24.9473 41.08 24.6699 41.024 24.4139 40.912C24.1579 40.7947 23.9366 40.6373 23.7499 40.44C23.5633 40.2373 23.4166 40.0053 23.3099 39.744C23.2086 39.4827 23.1579 39.2027 23.1579 38.904C23.1579 38.5147 23.2459 38.1573 23.4219 37.832C23.6033 37.5067 23.8513 37.248 24.1659 37.056C24.4806 36.8587 24.8379 36.76 25.2379 36.76C25.6486 36.76 26.0059 36.8587 26.3099 37.056C26.6193 37.2533 26.8619 37.5147 27.0379 37.84C27.2139 38.16 27.3019 38.512 27.3019 38.896C27.3019 38.9387 27.3019 38.9813 27.3019 39.024C27.3019 39.0613 27.2993 39.0907 27.2939 39.112H23.7259C23.7526 39.4107 23.8353 39.6773 23.9739 39.912C24.1179 40.1413 24.3019 40.3253 24.5259 40.464C24.7553 40.5973 25.0033 40.664 25.2699 40.664C25.5419 40.664 25.7979 40.5947 26.0379 40.456C26.2833 40.3173 26.4539 40.136 26.5499 39.912L27.0219 40.04C26.9366 40.2373 26.8059 40.416 26.6299 40.576C26.4539 40.736 26.2459 40.8613 26.0059 40.952C25.7713 41.0373 25.5179 41.08 25.2459 41.08ZM23.7099 38.72H26.7899C26.7686 38.416 26.6859 38.1493 26.5419 37.92C26.4033 37.6907 26.2193 37.512 25.9899 37.384C25.7659 37.2507 25.5179 37.184 25.2459 37.184C24.9739 37.184 24.7259 37.2507 24.5019 37.384C24.2779 37.512 24.0939 37.6933 23.9499 37.928C23.8113 38.1573 23.7313 38.4213 23.7099 38.72ZM32.1413 37.312C31.7786 37.3227 31.4586 37.424 31.1813 37.616C30.9093 37.808 30.7173 38.072 30.6053 38.408V41H30.0613V36.832H30.5733V37.832C30.7173 37.5387 30.9066 37.3013 31.1413 37.12C31.3813 36.9387 31.6346 36.8373 31.9013 36.816C31.9546 36.8107 31.9999 36.808 32.0373 36.808C32.0799 36.808 32.1146 36.8107 32.1413 36.816V37.312ZM38.2899 41H37.7459V38.672C37.7459 38.1813 37.6739 37.824 37.5299 37.6C37.3859 37.3707 37.1593 37.256 36.8499 37.256C36.6366 37.256 36.4259 37.3093 36.2179 37.416C36.0099 37.5173 35.8259 37.6587 35.6659 37.84C35.5113 38.016 35.3993 38.2187 35.3299 38.448V41H34.7859V36.832H35.2819V37.776C35.3939 37.5733 35.5406 37.3973 35.7219 37.248C35.9033 37.0933 36.1086 36.9733 36.3379 36.888C36.5673 36.8027 36.8046 36.76 37.0499 36.76C37.2793 36.76 37.4739 36.8027 37.6339 36.888C37.7939 36.9733 37.9219 37.096 38.0179 37.256C38.1139 37.4107 38.1833 37.6 38.2259 37.824C38.2686 38.0427 38.2899 38.288 38.2899 38.56V41ZM44.9931 39.8C44.9931 39.5387 45.0677 39.3147 45.2171 39.128C45.3664 38.936 45.5717 38.7893 45.8331 38.688C46.0997 38.5813 46.4064 38.528 46.7531 38.528C46.9557 38.528 47.1664 38.544 47.3851 38.576C47.6037 38.608 47.7984 38.656 47.9691 38.72V38.368C47.9691 38.016 47.8651 37.736 47.6571 37.528C47.4491 37.32 47.1611 37.216 46.7931 37.216C46.5691 37.216 46.3477 37.2587 46.1291 37.344C45.9157 37.424 45.6917 37.544 45.4571 37.704L45.2491 37.32C45.5211 37.1333 45.7877 36.9947 46.0491 36.904C46.3104 36.808 46.5771 36.76 46.8491 36.76C47.3611 36.76 47.7664 36.9067 48.0651 37.2C48.3637 37.4933 48.5131 37.8987 48.5131 38.416V40.344C48.5131 40.4187 48.5291 40.4747 48.5611 40.512C48.5931 40.544 48.6437 40.5627 48.7131 40.568V41C48.6544 41.0053 48.6037 41.0107 48.5611 41.016C48.5184 41.0213 48.4864 41.0213 48.4651 41.016C48.3317 41.0107 48.2304 40.968 48.1611 40.888C48.0917 40.808 48.0544 40.7227 48.0491 40.632L48.0411 40.328C47.8544 40.568 47.6117 40.7547 47.3131 40.888C47.0144 41.016 46.7104 41.08 46.4011 41.08C46.1344 41.08 45.8917 41.024 45.6731 40.912C45.4597 40.7947 45.2917 40.64 45.1691 40.448C45.0517 40.2507 44.9931 40.0347 44.9931 39.8ZM47.7851 40.12C47.8437 40.0453 47.8891 39.9733 47.9211 39.904C47.9531 39.8347 47.9691 39.7733 47.9691 39.72V39.112C47.7877 39.0427 47.5984 38.9893 47.4011 38.952C47.2091 38.9147 47.0144 38.896 46.8171 38.896C46.4277 38.896 46.1131 38.9733 45.8731 39.128C45.6331 39.2827 45.5131 39.4933 45.5131 39.76C45.5131 39.9147 45.5531 40.0613 45.6331 40.2C45.7131 40.3333 45.8304 40.4453 45.9851 40.536C46.1397 40.6213 46.3211 40.664 46.5291 40.664C46.7904 40.664 47.0331 40.6133 47.2571 40.512C47.4864 40.4107 47.6624 40.28 47.7851 40.12ZM53.6884 37.312C53.3258 37.3227 53.0058 37.424 52.7284 37.616C52.4564 37.808 52.2644 38.072 52.1524 38.408V41H51.6084V36.832H52.1204V37.832C52.2644 37.5387 52.4538 37.3013 52.6884 37.12C52.9284 36.9387 53.1818 36.8373 53.4484 36.816C53.5018 36.8107 53.5471 36.808 53.5844 36.808C53.6271 36.808 53.6618 36.8107 53.6884 36.816V37.312ZM58.3331 40.8C58.2905 40.816 58.2238 40.8453 58.1331 40.888C58.0425 40.9307 57.9331 40.968 57.8051 41C57.6771 41.032 57.5385 41.048 57.3891 41.048C57.2345 41.048 57.0878 41.0187 56.9491 40.96C56.8158 40.9013 56.7091 40.8133 56.6291 40.696C56.5491 40.5733 56.5091 40.424 56.5091 40.248V37.264H55.9331V36.832H56.5091V35.424H57.0531V36.832H58.0131V37.264H57.0531V40.096C57.0638 40.2453 57.1171 40.3573 57.2131 40.432C57.3145 40.5067 57.4291 40.544 57.5571 40.544C57.7065 40.544 57.8425 40.52 57.9651 40.472C58.0878 40.4187 58.1625 40.3813 58.1891 40.36L58.3331 40.8ZM66.5639 41.056C66.2812 41.056 66.0199 40.9973 65.7799 40.88C65.5399 40.7627 65.3319 40.6053 65.1559 40.408C64.9852 40.2053 64.8519 39.976 64.7559 39.72C64.6599 39.464 64.6119 39.2 64.6119 38.928C64.6119 38.6347 64.6572 38.36 64.7479 38.104C64.8439 37.8427 64.9772 37.6107 65.1479 37.408C65.3239 37.2053 65.5292 37.048 65.7639 36.936C65.9985 36.8187 66.2599 36.76 66.5479 36.76C66.9052 36.76 67.2145 36.8507 67.4759 37.032C67.7425 37.2133 67.9665 37.4373 68.1479 37.704V36.832H68.6359V41.016C68.6359 41.4 68.5425 41.7227 68.3559 41.984C68.1745 42.2507 67.9265 42.4507 67.6119 42.584C67.3025 42.7173 66.9639 42.784 66.5959 42.784C66.1212 42.784 65.7372 42.6987 65.4439 42.528C65.1505 42.3573 64.9105 42.128 64.7239 41.84L65.0599 41.576C65.2252 41.8373 65.4439 42.032 65.7159 42.16C65.9932 42.288 66.2865 42.352 66.5959 42.352C66.8679 42.352 67.1159 42.3013 67.3399 42.2C67.5692 42.104 67.7505 41.9573 67.8839 41.76C68.0225 41.5627 68.0919 41.3147 68.0919 41.016V40.192C67.9319 40.4533 67.7132 40.664 67.4359 40.824C67.1585 40.9787 66.8679 41.056 66.5639 41.056ZM66.7159 40.6C66.8812 40.6 67.0385 40.5707 67.1879 40.512C67.3425 40.4533 67.4839 40.376 67.6119 40.28C67.7399 40.1787 67.8465 40.0667 67.9319 39.944C68.0172 39.8213 68.0705 39.696 68.0919 39.568V38.28C68.0119 38.0773 67.8972 37.8987 67.7479 37.744C67.5985 37.584 67.4279 37.4613 67.2359 37.376C67.0492 37.2853 66.8545 37.24 66.6519 37.24C66.4172 37.24 66.2065 37.2907 66.0199 37.392C65.8385 37.488 65.6839 37.6187 65.5559 37.784C65.4332 37.944 65.3372 38.1253 65.2679 38.328C65.1985 38.5307 65.1639 38.7333 65.1639 38.936C65.1639 39.16 65.2039 39.3733 65.2839 39.576C65.3639 39.7733 65.4732 39.952 65.6119 40.112C65.7559 40.2667 65.9212 40.3867 66.1079 40.472C66.2999 40.5573 66.5025 40.6 66.7159 40.6ZM71.4212 39.8C71.4212 39.5387 71.4959 39.3147 71.6452 39.128C71.7945 38.936 71.9999 38.7893 72.2612 38.688C72.5279 38.5813 72.8345 38.528 73.1812 38.528C73.3839 38.528 73.5945 38.544 73.8132 38.576C74.0319 38.608 74.2265 38.656 74.3972 38.72V38.368C74.3972 38.016 74.2932 37.736 74.0852 37.528C73.8772 37.32 73.5892 37.216 73.2212 37.216C72.9972 37.216 72.7759 37.2587 72.5572 37.344C72.3439 37.424 72.1199 37.544 71.8852 37.704L71.6772 37.32C71.9492 37.1333 72.2159 36.9947 72.4772 36.904C72.7385 36.808 73.0052 36.76 73.2772 36.76C73.7892 36.76 74.1945 36.9067 74.4932 37.2C74.7919 37.4933 74.9412 37.8987 74.9412 38.416V40.344C74.9412 40.4187 74.9572 40.4747 74.9892 40.512C75.0212 40.544 75.0719 40.5627 75.1412 40.568V41C75.0825 41.0053 75.0319 41.0107 74.9892 41.016C74.9465 41.0213 74.9145 41.0213 74.8932 41.016C74.7599 41.0107 74.6585 40.968 74.5892 40.888C74.5199 40.808 74.4825 40.7227 74.4772 40.632L74.4692 40.328C74.2825 40.568 74.0399 40.7547 73.7412 40.888C73.4425 41.016 73.1385 41.08 72.8292 41.08C72.5625 41.08 72.3199 41.024 72.1012 40.912C71.8879 40.7947 71.7199 40.64 71.5972 40.448C71.4799 40.2507 71.4212 40.0347 71.4212 39.8ZM74.2132 40.12C74.2719 40.0453 74.3172 39.9733 74.3492 39.904C74.3812 39.8347 74.3972 39.7733 74.3972 39.72V39.112C74.2159 39.0427 74.0265 38.9893 73.8292 38.952C73.6372 38.9147 73.4425 38.896 73.2452 38.896C72.8559 38.896 72.5412 38.9733 72.3012 39.128C72.0612 39.2827 71.9412 39.4933 71.9412 39.76C71.9412 39.9147 71.9812 40.0613 72.0612 40.2C72.1412 40.3333 72.2585 40.4453 72.4132 40.536C72.5679 40.6213 72.7492 40.664 72.9572 40.664C73.2185 40.664 73.4612 40.6133 73.6852 40.512C73.9145 40.4107 74.0905 40.28 74.2132 40.12ZM78.0606 35.16H78.6046V40.056C78.6046 40.264 78.6419 40.4 78.7166 40.464C78.7912 40.528 78.8819 40.56 78.9886 40.56C79.0846 40.56 79.1806 40.5493 79.2766 40.528C79.3726 40.5067 79.4552 40.4853 79.5246 40.464L79.6206 40.904C79.5192 40.9467 79.3939 40.9813 79.2446 41.008C79.1006 41.0347 78.9752 41.048 78.8686 41.048C78.6232 41.048 78.4259 40.976 78.2766 40.832C78.1326 40.688 78.0606 40.4907 78.0606 40.24V35.16ZM82.1602 35.16H82.7042V40.056C82.7042 40.264 82.7416 40.4 82.8162 40.464C82.8909 40.528 82.9816 40.56 83.0882 40.56C83.1842 40.56 83.2802 40.5493 83.3762 40.528C83.4722 40.5067 83.5549 40.4853 83.6242 40.464L83.7202 40.904C83.6189 40.9467 83.4936 40.9813 83.3442 41.008C83.2002 41.0347 83.0749 41.048 82.9682 41.048C82.7229 41.048 82.5256 40.976 82.3762 40.832C82.2322 40.688 82.1602 40.4907 82.1602 40.24V35.16ZM88.0359 41.08C87.7373 41.08 87.4599 41.024 87.2039 40.912C86.9479 40.7947 86.7266 40.6373 86.5399 40.44C86.3533 40.2373 86.2066 40.0053 86.0999 39.744C85.9986 39.4827 85.9479 39.2027 85.9479 38.904C85.9479 38.5147 86.0359 38.1573 86.2119 37.832C86.3933 37.5067 86.6413 37.248 86.9559 37.056C87.2706 36.8587 87.6279 36.76 88.0279 36.76C88.4386 36.76 88.7959 36.8587 89.0999 37.056C89.4093 37.2533 89.6519 37.5147 89.8279 37.84C90.0039 38.16 90.0919 38.512 90.0919 38.896C90.0919 38.9387 90.0919 38.9813 90.0919 39.024C90.0919 39.0613 90.0893 39.0907 90.0839 39.112H86.5159C86.5426 39.4107 86.6253 39.6773 86.7639 39.912C86.9079 40.1413 87.0919 40.3253 87.3159 40.464C87.5453 40.5973 87.7933 40.664 88.0599 40.664C88.3319 40.664 88.5879 40.5947 88.8279 40.456C89.0733 40.3173 89.2439 40.136 89.3399 39.912L89.8119 40.04C89.7266 40.2373 89.5959 40.416 89.4199 40.576C89.2439 40.736 89.0359 40.8613 88.7959 40.952C88.5613 41.0373 88.3079 41.08 88.0359 41.08ZM86.4999 38.72H89.5799C89.5586 38.416 89.4759 38.1493 89.3319 37.92C89.1933 37.6907 89.0093 37.512 88.7799 37.384C88.5559 37.2507 88.3079 37.184 88.0359 37.184C87.7639 37.184 87.5159 37.2507 87.2919 37.384C87.0679 37.512 86.8839 37.6933 86.7399 37.928C86.6013 38.1573 86.5213 38.4213 86.4999 38.72ZM94.9313 37.312C94.5686 37.3227 94.2486 37.424 93.9713 37.616C93.6993 37.808 93.5073 38.072 93.3953 38.408V41H92.8513V36.832H93.3633V37.832C93.5073 37.5387 93.6966 37.3013 93.9313 37.12C94.1713 36.9387 94.4246 36.8373 94.6913 36.816C94.7446 36.8107 94.7899 36.808 94.8273 36.808C94.8699 36.808 94.9046 36.8107 94.9313 36.816V37.312ZM97.8159 42.28C97.8906 42.2853 97.9626 42.288 98.0319 42.288C98.1013 42.2933 98.1519 42.2907 98.1839 42.28C98.2479 42.2693 98.3093 42.232 98.3679 42.168C98.4266 42.104 98.4959 41.9813 98.5759 41.8C98.6559 41.6187 98.7679 41.352 98.9119 41L97.0959 36.832H97.6719L99.1999 40.44L100.608 36.832H101.152L98.9919 42.208C98.9546 42.3093 98.8986 42.4027 98.8239 42.488C98.7493 42.5787 98.6559 42.648 98.5439 42.696C98.4373 42.7493 98.3039 42.7787 98.1439 42.784C98.0959 42.7893 98.0453 42.7893 97.9919 42.784C97.9439 42.784 97.8853 42.7787 97.8159 42.768V42.28Z" fill="#253543"/>
</svg>
